<?xml version="1.0" encoding="UTF-8"?><svg xmlns="http://www.w3.org/2000/svg" xmlns:xlink="http://www.w3.org/1999/xlink" height="805.1" preserveAspectRatio="xMidYMid meet" version="1.0" viewBox="0.0 58.9 864.0 805.1" width="864.0" zoomAndPan="magnify"><g><defs><g id="change1_1"><path d="M0 0H864V864H0z" id="a"/></g></defs><clipPath id="b"><use overflow="visible" xlink:actuate="onLoad" xlink:href="#a" xlink:show="embed" xlink:type="simple" xmlns:xlink="http://www.w3.org/1999/xlink"/></clipPath><g id="change2_1"><path clip-path="url(#b)" d="M917.96,569.04v353.87H-253.67v-864h226.54c7.47,9.08,16.37,17.87,25.98,26.13 c19,16.33,40.38,30.79,61.42,45.05c19.97,13.54,40.32,27.21,56.34,41.85c18.01,16.47,27.54,32.45,30.8,47.04 c3.62,16.19-1.6,29.37-12.83,39.81c-11.43,10.65-28.19,18.54-45.35,26.03c-17.33,7.61-35.56,14.77-49.46,24.37 c-14.13,9.77-22.69,22.41-19.69,39.2c3.27,18.65,20.79,42.82,59.6,63.17c41.45,21.68,90,29.51,134.43,35.75 c38.58,5.45,82.54,11.27,120.5,23.52c30.32,9.77,47.29,21.83,55.96,33.13c11.68,15.19,11.5,29.35,9.14,42.84 c-2.36,13.88-7.72,27.75,2.87,42.9c11.39,16.28,44.21,32.65,89.72,44.28c43.64,11.23,97.73,17.48,151.23,17.59 c53.5,0.21,106.44-5.74,148.1-16.13c40.91-10.17,70.2-23.89,85.78-37.47c15.13-13.22,17.62-26.4,6.26-37.59 c4.03,4,17.62,6.37,29.56,8.03C914.8,568.63,916.38,568.84,917.96,569.04z" fill="#FFBA07"/></g></g></svg>