<?xml version="1.0" encoding="UTF-8"?><svg xmlns="http://www.w3.org/2000/svg" xmlns:xlink="http://www.w3.org/1999/xlink" height="530.7" preserveAspectRatio="xMidYMid meet" version="1.0" viewBox="0.0 333.3 864.0 530.7" width="864.0" zoomAndPan="magnify"><g><defs><g id="change1_1"><path d="M0 0H864V864H0z" id="a"/></g></defs><clipPath id="b"><use overflow="visible" xlink:actuate="onLoad" xlink:href="#a" xlink:show="embed" xlink:type="simple" xmlns:xlink="http://www.w3.org/1999/xlink"/></clipPath><g clip-path="url(#b)" id="change2_1"><path d="M911.92,939.28c13.87-16.81,23.08-32.62,25.61-44.58c2.44-11.6-1.32-19.07-8.6-23.49 c-5.61-3.41-13.48-4.87-20.88-6.83c-7.61-2.01-14.98-4.38-20.42-8.33c-4.98-3.61-8.67-8.62-6.82-16.82 c1.85-8.22,9.95-18.97,21.53-30.51c17.78-17.66,38.81-33.74,58.74-47.64c22.7-15.82,43.33-28.13,63.72-41.9 c20.83-14.12,42.15-30.52,63.23-54.42c18.72-21.2,36.02-46.88,49.41-72.88c13.35-25.84,22.45-51.15,27.28-72.97 c3.77-17.02,5.07-31.8,3.27-41.64c-1.61-8.82-5.61-13.36-11.02-14.68c-5.58-1.36-12.54,0.48-20,3.53 c-7.92,3.25-16.46,7.88-25.16,12.55c-8.71,4.69-17.6,9.48-26.29,13.39c-9.32,4.2-18.26,7.18-26.25,7.95 c-10.47,1.01-19.65-0.61-29.2-1.63c-9.43-1.03-19.23-1.61-30.86,0.92c-11.52,2.48-24.88,8.28-40.12,17.98 c-11.86,7.55-24.2,16.78-36.7,28.45c-10.49,9.8-20.4,20.42-29.99,30.84c-9.79,10.64-19.34,21.19-29.52,31.28 c-9.66,9.57-20.04,18.85-31.33,26.53c-11.55,7.86-23.58,13.43-34.66,16c-13.6,3.17-25.63,2.51-34.38-0.8 c-8.55-3.23-14.09-8.99-18.11-15.51c-4.15-6.76-6.81-14.34-9.69-21.75c-2.87-7.41-5.93-14.75-10.6-21.2 c-4.66-6.46-11.01-12.08-19.85-15.67c-9.19-3.73-20.69-5.58-33.01-5.46c-11.86,0.14-24.73,2.22-36.4,7.27 c-14.93,6.44-24.97,17.07-36.66,26.17c-5.9,4.58-12.5,8.97-20.31,11.82c-6.62,2.42-13.82,3.52-20.67,3.1 c-13.33-0.8-24.08-6.81-31.42-14c-9.05-8.87-12.86-19.93-16.44-30.83c-3.85-11.9-7.62-24.13-15.69-34.87 c-6.89-9.19-16.14-17.11-26.32-23.29c-10.19-6.15-21.38-10.58-32.86-12.32c-12.16-1.83-24.54-0.64-36.2,3.25 c-11.18,3.75-21.82,10.03-30.26,18.74c0.43-0.45-11.65-8.15-12.31-8.69c-8.63-5.67-17.07-11.46-25.26-17.48 c-6.56-4.82-12.9-9.92-19.35-14.71c-4.1-3.05-8.76-5.36-13.27-7.64c-7.47-3.78-15.22-6.97-23.29-9.33 c-15.14-4.4-31.94-6.1-48.5-2.61c-13.69,2.91-26.47,9.96-36.54,20.39c-9.54,9.86-15.59,22.02-21.52,34.22 c-5.54,11.28-11.19,23.22-21.34,31.24c-9.65,7.64-23.77,9.73-38.25,4.86c-10.96-3.68-19.94-11.6-25.79-21.33 c-6.54-10.85-9.53-22.9-11.31-34.51c-2.01-13-2.44-25.98-2.81-38.97c-0.33-11.78-0.39-23.8-2.34-35.7 c-2.3-13.98-9.01-27.07-16.96-38.89c-9.84-14.57-22.48-27.38-37.26-36.93c-14.7-9.46-31.59-15.52-48.62-15.56 c-18.65-0.05-36.04,7.63-50.65,19.03c-15.24,11.81-27.77,27.3-40.27,42.3c-6.15,7.36-12.33,14.64-19.02,21.2 c-6.42,6.3-13.42,11.72-20.74,16.64c-15.08,10.18-31.39,18.29-46.48,28.37c-14.61,9.81-28.39,21.68-36.13,39.7 c-7.12,16.53-9.14,39.34-1.16,63.59c5.99,18.28,17.77,36.28,31.52,52.29c14,16.33,29.77,30.79,45.29,45.05 c14.72,13.54,29.73,27.21,41.54,41.86c13.28,16.47,20.31,32.44,22.71,47.03c2.67,16.2-1.18,29.37-9.46,39.81 c-8.43,10.65-20.79,18.54-33.44,26.03c-12.78,7.6-26.21,14.77-36.47,24.37c-10.42,9.76-16.72,22.41-14.52,39.2 c2.42,18.66,15.34,42.82,43.95,63.18c30.57,21.68,66.37,29.5,99.13,35.74c28.45,5.46,60.88,11.28,88.87,23.52 c22.36,9.78,34.86,21.83,41.26,33.14c8.61,15.18,8.48,29.34,6.74,42.83c-1.74,13.88-5.68,27.75,2.12,42.9 c8.4,16.28,32.6,32.66,66.16,44.28c32.18,11.23,72.07,17.49,111.51,17.59c39.45,0.21,78.5-5.74,109.21-16.13 c30.17-10.17,51.78-23.89,63.26-37.47c11.16-13.22,12.99-26.4,4.62-37.59c2.97,4,12.99,6.37,21.8,8.03 c11.8,2.25,24.97,3.54,38.4,4.31c28.15,1.62,57.69,1.46,88.65-1.93c38.62-4.21,79.43-13.33,119.77-27.33 c39.2-13.55,78.23-31.83,113.61-53.91c34.93-21.71,66.07-47.24,88.68-72.37C906.65,945.52,909.36,942.38,911.92,939.28z" fill="#FFBA07"/></g></g></svg>