<?xml version="1.0" encoding="UTF-8"?><svg xmlns="http://www.w3.org/2000/svg" xmlns:xlink="http://www.w3.org/1999/xlink" height="1355.3" preserveAspectRatio="xMidYMid meet" version="1.0" viewBox="641.0 441.7 975.7 1355.3" width="975.7" zoomAndPan="magnify"><g id="change1_1"><path d="M 1219.34375 1121.613281 C 1223.691406 1121.613281 1227.996094 1123.421875 1231.0625 1126.863281 C 1236.191406 1132.625 1236.378906 1141.261719 1231.492188 1147.234375 C 1194.167969 1192.761719 1173.238281 1266.992188 1179.417969 1331.941406 C 1182.5625 1364.972656 1188.320312 1390.433594 1197.554688 1412.042969 C 1205.652344 1431.03125 1216.960938 1448.421875 1228.933594 1466.832031 C 1237.371094 1479.800781 1246.097656 1493.222656 1253.667969 1507.339844 C 1294.3125 1583.121094 1299.253906 1680.242188 1268.429688 1758.8125 C 1316.53125 1744.820312 1363.429688 1717.652344 1403.035156 1680.441406 C 1446.515625 1639.589844 1482.460938 1586.742188 1509.839844 1523.332031 C 1577.539062 1366.664062 1572.230469 1173.921875 1498.566406 1018.878906 C 1491.316406 1069.285156 1479.570312 1120.390625 1463.957031 1169.09375 C 1461.695312 1176.144531 1454.789062 1180.632812 1447.441406 1179.902344 C 1440.082031 1179.164062 1434.234375 1173.371094 1433.441406 1166.011719 C 1415.546875 1002.695312 1369.421875 845.261719 1296.320312 698.109375 C 1267.070312 639.25 1240.726562 597.261719 1210.894531 561.988281 C 1186.976562 533.722656 1155.410156 509.132812 1118.363281 489.726562 C 1140.574219 555.425781 1141.742188 635.398438 1121.761719 728.148438 C 1091.21875 869.875 1023.707031 1006.886719 921.09375 1135.347656 C 917.277344 1140.140625 911.003906 1142.261719 905.066406 1140.792969 C 899.121094 1139.3125 894.582031 1134.511719 893.4375 1128.496094 C 878.707031 1050.828125 840.191406 980.5625 781.300781 923.25 C 783.664062 988.253906 766.296875 1051.5 747.984375 1106.464844 C 742.5625 1122.726562 736.765625 1139.132812 731.160156 1155.011719 C 712.8125 1206.960938 693.839844 1260.683594 686.175781 1315.222656 C 673.101562 1408.339844 694.058594 1507.5625 743.667969 1587.441406 C 786.417969 1656.273438 851.464844 1712.390625 925.75 1745.5 C 900.492188 1685.300781 889.871094 1615.882812 894.914062 1542.3125 C 899.988281 1468.242188 920.445312 1390.640625 957.460938 1305.0625 C 960.472656 1298.101562 968.03125 1294.28125 975.433594 1296.03125 C 982.824219 1297.761719 987.910156 1304.542969 987.507812 1312.121094 C 985.722656 1345.832031 990.726562 1382.222656 1001.476562 1417.574219 C 1003.136719 1403.730469 1005.746094 1390.832031 1008.578125 1379.550781 C 1018.40625 1340.433594 1037.46875 1301.582031 1066.835938 1260.773438 C 1106.019531 1206.351562 1154.472656 1160.371094 1210.871094 1124.105469 C 1213.488281 1122.429688 1216.433594 1121.613281 1219.34375 1121.613281 Z M 1240.59375 1797 C 1235.574219 1797 1230.796875 1794.582031 1227.828125 1790.410156 C 1224.332031 1785.5 1223.96875 1779.019531 1226.878906 1773.742188 C 1267.558594 1700.0625 1267.214844 1598.960938 1226.042969 1522.171875 C 1219.082031 1509.203125 1211.09375 1496.933594 1202.640625 1483.933594 C 1190.460938 1465.203125 1177.875 1445.84375 1168.71875 1424.351562 C 1158.179688 1399.683594 1151.660156 1371.261719 1148.195312 1334.914062 C 1143.828125 1289.023438 1151.695312 1238.832031 1168.71875 1195.113281 C 1140.144531 1220.191406 1114.28125 1248.542969 1092.296875 1279.09375 C 1065.277344 1316.632812 1047.835938 1351.992188 1038.996094 1387.191406 C 1030.996094 1419.011719 1024.898438 1465.171875 1041.238281 1504.414062 C 1044.367188 1511.933594 1041.21875 1520.589844 1033.996094 1524.339844 C 1026.777344 1528.113281 1017.878906 1525.710938 1013.515625 1518.84375 C 987.4375 1477.730469 969.238281 1429.820312 960.917969 1382.382812 C 941.152344 1439.523438 929.722656 1493 926.203125 1544.453125 C 920.515625 1627.390625 935.992188 1704.3125 970.96875 1766.882812 C 974.125 1772.519531 973.492188 1779.53125 969.371094 1784.511719 C 965.253906 1789.5 958.484375 1791.441406 952.355469 1789.421875 C 856.222656 1757.589844 770.453125 1690 717.03125 1603.992188 C 663.605469 1517.972656 641.039062 1411.132812 655.125 1310.863281 C 663.21875 1253.210938 682.726562 1197.984375 701.589844 1144.5625 C 707.152344 1128.816406 712.898438 1112.542969 718.234375 1096.546875 C 739.160156 1033.738281 758.835938 959.800781 746.121094 887.460938 C 744.984375 881.015625 747.980469 874.539062 753.617188 871.230469 C 759.273438 867.910156 766.375 868.449219 771.449219 872.578125 C 843.699219 931.292969 893.425781 1005.925781 916.648438 1089.949219 C 1004.976562 972.863281 1063.628906 849.066406 1091.097656 721.542969 C 1113.257812 618.71875 1107.464844 530.304688 1074.355469 465.851562 C 1071.378906 460.027344 1072.308594 452.964844 1076.707031 448.132812 C 1081.109375 443.300781 1088.058594 441.703125 1094.128906 444.117188 C 1151.574219 467.066406 1200.226562 500.824219 1234.835938 541.746094 C 1266.367188 579.011719 1293.992188 622.945312 1324.394531 684.164062 C 1387.679688 811.546875 1431.191406 946.472656 1454.160156 1086.199219 C 1463.363281 1045.964844 1469.78125 1005.199219 1473.09375 965.625 C 1473.667969 958.828125 1478.566406 953.167969 1485.21875 951.648438 C 1491.859375 950.125 1498.742188 953.082031 1502.230469 958.960938 C 1602.4375 1128.609375 1616.726562 1355.011719 1538.636719 1535.769531 C 1509.523438 1603.140625 1471.140625 1659.5 1424.515625 1703.289062 C 1371.363281 1753.210938 1308.695312 1785.539062 1243.253906 1796.78125 C 1242.371094 1796.929688 1241.488281 1797 1240.59375 1797"/></g></svg>