<?xml version="1.0" encoding="UTF-8"?><svg xmlns="http://www.w3.org/2000/svg" xmlns:xlink="http://www.w3.org/1999/xlink" height="416.3" preserveAspectRatio="xMidYMid meet" version="1.0" viewBox="6.0 46.8 500.0 416.3" width="500.0" zoomAndPan="magnify"><g id="change1_1"><path clip-rule="evenodd" d="M194.374,249.882c12.579,0,22.812-10.234,22.812-22.813c0-12.579-10.234-22.812-22.812-22.812 c-12.579,0-22.813,10.234-22.813,22.813C171.562,239.649,181.796,249.882,194.374,249.882z M194.374,220.257 c3.756,0,6.812,3.056,6.812,6.812c0,3.757-3.056,6.813-6.812,6.813s-6.813-3.057-6.813-6.813S190.618,220.257,194.374,220.257z M175.903,283.171c17.028,9.831,37.703,10.298,55.053,1.506l36.027,20.8c1.958,1.13,4.3,1.38,6.45,0.688l9.883-3.18l2.188,10.149 c0.476,2.208,1.864,4.112,3.82,5.242s4.298,1.38,6.45,0.688l9.883-3.18l2.188,10.149c0.476,2.208,1.864,4.112,3.82,5.242 l7.596,4.386c1.226,0.708,2.606,1.072,4,1.072c0.599,0,1.201-0.067,1.793-0.204l33.753-7.762c2.165-0.498,4.025-1.873,5.135-3.796 s1.371-4.222,0.72-6.346l-10.155-33.112c-0.593-1.934-1.897-3.571-3.648-4.583l-88.306-50.984 c-1.061-19.421-11.803-37.093-28.831-46.924c-27.61-15.94-63.043-6.447-78.985,21.164 C138.798,231.797,148.292,267.229,175.903,283.171z M168.596,212.186c11.53-19.97,37.157-26.837,57.128-15.307 c13.344,7.704,21.352,22.069,20.899,37.489c-0.086,2.941,1.449,5.692,3.997,7.163l89.516,51.682l6.712,21.887l-22.311,5.131 l-1.798-1.038l-3.302-15.315c-0.476-2.208-1.864-4.113-3.82-5.242c-1.956-1.129-4.298-1.379-6.45-0.688l-9.883,3.18l-2.188-10.149 c-0.476-2.208-1.864-4.112-3.82-5.242c-1.956-1.129-4.299-1.38-6.45-0.688l-14.914,4.798l-36.89-21.298 c-2.546-1.47-5.696-1.424-8.202,0.121c-13.129,8.102-29.573,8.349-42.916,0.646C163.933,257.784,157.066,232.156,168.596,212.186z M338.871,361.518l-80.415,21.876c-2.602,0.708-5.162,1.149-7.709,1.322c1.015-1.255,1.955-2.625,2.811-4.107 c7.541-13.061,3.138-29.978-10.023-38.513c-0.303-0.196-0.618-0.372-0.944-0.525c-18.903-8.904-36.661-21.281-50.93-31.227 c-4.985-3.475-9.695-6.758-13.756-9.392c-16.8-10.899-35.234-8.01-51.051-3.746l-58.204,15.69l-1.562-6.039l0,0 c-2.569-9.93-12.739-15.919-22.669-13.35l-22.478,5.816c-9.929,2.57-15.917,12.74-13.349,22.669l30.213,116.758 c1.242,4.799,4.288,8.833,8.577,11.359c2.908,1.712,6.144,2.588,9.422,2.588c1.558,0,3.125-0.198,4.67-0.598l22.477-5.816 c4.799-1.242,8.833-4.288,11.359-8.577c2.525-4.289,3.232-9.294,1.99-14.093l-3.319-12.827l11.436-3.064l82.117,47.41 c9.137,5.276,18.873,7.941,28.76,7.941c5.456,0,10.958-0.812,16.429-2.445l147.061-43.905c14.204-4.24,23.157-22.063,18.784-37.395 C396.454,371.919,385.903,348.725,338.871,361.518z M81.523,429.59c-0.207,0.351-0.687,0.975-1.58,1.206l-22.477,5.816 c-0.892,0.23-1.615-0.081-1.966-0.288c-0.351-0.207-0.974-0.687-1.206-1.58L24.082,317.986c-0.354-1.366,0.502-2.819,1.867-3.172 l22.476-5.816c0.224-0.058,0.436-0.082,0.635-0.082c0.596,0,1.069,0.214,1.332,0.37c0.351,0.207,0.975,0.687,1.205,1.579 c0,0,0,0,0,0l30.213,116.759C82.042,428.517,81.73,429.239,81.523,429.59z M375.208,401.396L228.148,445.3 c-11.221,3.349-22.193,1.996-32.613-4.021l-84.987-49.067c-1.837-1.061-4.021-1.347-6.07-0.799l-14.504,3.886l-17.315-66.912 l58.359-15.732c13.035-3.514,26.681-5.738,38.18,1.721c3.838,2.49,8.23,5.55,13.314,9.095 c14.629,10.197,32.804,22.864,52.716,32.318c5.805,4.021,7.736,11.171,4.474,16.821c-3.258,5.643-8.385,7.34-15.256,5.056 c-10.706-5.232-38.678-21.929-43.354-24.628c-3.828-2.21-8.72-0.897-10.928,2.928c-2.209,3.827-0.898,8.719,2.929,10.928 c4.575,2.641,49.485,27.607,51.743,28.617c12.736,5.694,25.107,6.781,37.821,3.323l80.415-21.876 c21.857-5.946,37.227-3.353,40.112,6.764C385.136,390.57,381.038,399.655,375.208,401.396z M47.835,326.204 c-0.463,3.957-4.047,6.789-8.004,6.325c-3.957-0.464-6.789-4.047-6.325-8.005c0.464-3.957,4.047-6.789,8.004-6.326 C45.467,318.663,48.299,322.247,47.835,326.204z M503.408,190.006L473.194,73.248c-2.569-9.93-12.737-15.92-22.669-13.349 l-22.476,5.816c-4.799,1.242-8.833,4.288-11.359,8.577c-2.525,4.289-3.232,9.294-1.99,14.093l3.319,12.826l-11.436,3.064 l-82.117-47.41c-14.177-8.187-29.803-10.089-45.19-5.497L132.215,95.273c-14.204,4.24-23.157,22.063-18.784,37.394 c2.114,7.414,12.667,30.607,59.698,17.814l80.415-21.875c2.602-0.708,5.162-1.149,7.709-1.322c-1.015,1.255-1.955,2.625-2.811,4.107 c-7.541,13.062-3.138,29.978,10.024,38.513c0.302,0.196,0.617,0.371,0.943,0.525c18.902,8.905,36.661,21.282,50.929,31.227 c4.986,3.475,9.695,6.758,13.757,9.392c8.641,5.606,17.712,7.563,26.639,7.563c8.429,0,16.73-1.747,24.412-3.817l58.203-15.69 l1.562,6.038c0,0,0,0,0,0c2.167,8.374,9.737,13.944,18.012,13.944c1.538,0,3.101-0.193,4.657-0.596l22.477-5.816 C499.988,210.107,505.976,199.937,503.408,190.006z M380.982,199.346c-13.036,3.513-26.682,5.737-38.18-1.721 c-3.839-2.49-8.23-5.551-13.315-9.095c-14.629-10.197-32.804-22.864-52.716-32.318c-5.804-4.021-7.735-11.17-4.473-16.821 c3.258-5.642,8.384-7.339,15.257-5.055c10.708,5.233,38.679,21.929,43.353,24.628c3.826,2.208,8.718,0.898,10.928-2.928 c2.209-3.827,0.898-8.719-2.928-10.928c-4.573-2.64-49.486-27.607-51.743-28.617c-12.737-5.694-25.108-6.782-37.821-3.323 l-80.415,21.876c-21.856,5.945-37.227,3.354-40.112-6.764c-1.954-6.85,2.146-15.934,7.975-17.674L283.851,66.7 c11.221-3.349,22.193-1.996,32.613,4.021l84.987,49.067c1.838,1.061,4.022,1.348,6.07,0.799l14.504-3.886l17.314,66.913 L380.982,199.346z M486.05,197.186l-22.477,5.816c-0.894,0.231-1.616-0.082-1.966-0.288c-0.351-0.207-0.975-0.687-1.206-1.58v0 L430.188,84.376c-0.231-0.893,0.082-1.615,0.288-1.966c0.207-0.351,0.687-0.975,1.581-1.206l22.476-5.816 c1.367-0.355,2.818,0.502,3.172,1.868l30.212,116.758C488.271,195.38,487.416,196.833,486.05,197.186z M478.494,187.475 c-0.464,3.957-4.047,6.789-8.004,6.326c-3.957-0.463-6.789-4.047-6.325-8.004c0.463-3.957,4.047-6.789,8.004-6.326 C476.126,179.934,478.957,183.518,478.494,187.475z" fill-rule="evenodd"/></g></svg>