<?xml version="1.0" encoding="UTF-8"?><svg xmlns="http://www.w3.org/2000/svg" xmlns:xlink="http://www.w3.org/1999/xlink" height="614.2" preserveAspectRatio="xMidYMid meet" version="1.0" viewBox="-0.7 -0.0 443.0 614.2" width="443.0" zoomAndPan="magnify"><defs><clipPath id="a"><path d="M 206 518 L 297 518 L 297 614.210938 L 206 614.210938 Z M 206 518"/></clipPath><clipPath id="b"><path d="M 290 410 L 442.269531 410 L 442.269531 573 L 290 573 Z M 290 410"/></clipPath></defs><g><g id="change1_1"><path d="M 291.398438 588.480469 C 290.40625 585.699219 289.613281 582.71875 288.890625 579.722656 C 288.148438 576.714844 287.851562 573.605469 287.871094 570.683594 L 287.988281 568.519531 C 288.074219 567.820312 288.289062 567.1875 288.394531 566.515625 C 288.777344 564.492188 289.15625 563.070312 289.4375 561.050781 C 289.792969 556.394531 289.539062 552.617188 288.824219 548.933594 C 288.257812 545.214844 287.191406 541.757812 286.1875 538.449219 C 285.199219 535.128906 283.957031 532.042969 282.730469 529.160156 C 281.5625 526.25 280.246094 523.597656 278.996094 521.175781 C 278.300781 519.808594 277.617188 518.539062 276.945312 517.332031 C 278.160156 516.78125 279.292969 516.007812 279.933594 515.078125 C 284.042969 509.097656 288.714844 503.695312 290.15625 496.453125 C 290.261719 496.496094 290.339844 496.527344 290.445312 496.570312 C 293.734375 497.871094 298.382812 499.785156 303.746094 502.308594 C 306.414062 503.597656 309.265625 505.035156 312.179688 506.644531 C 315.09375 508.261719 318.050781 510.128906 320.929688 512.167969 C 323.855469 514.164062 326.5 516.617188 328.984375 519.128906 C 330.363281 520.304688 331.191406 521.851562 332.347656 523.179688 C 333.394531 524.566406 333.890625 525.925781 334.789062 527.246094 C 335.1875 528.03125 335.507812 529.085938 335.867188 529.996094 L 336.394531 531.40625 L 336.660156 532.113281 L 336.792969 532.464844 L 336.824219 532.554688 C 336.574219 531.738281 336.765625 532.359375 336.714844 532.191406 L 336.734375 532.246094 L 336.8125 532.46875 C 337.582031 534.953125 338.582031 536.953125 339.574219 538.890625 C 341.621094 542.621094 344 545.902344 346.28125 549.015625 C 350.902344 555.214844 355.632812 560.546875 359.867188 564.949219 C 363.355469 568.609375 366.472656 571.578125 368.976562 573.847656 C 368.792969 574.046875 368.609375 574.253906 368.433594 574.445312 C 358.054688 585.914062 345.371094 594.152344 331.261719 600.121094 C 325.84375 602.414062 319.933594 603.707031 314.125 604.851562 C 309.140625 605.832031 303.921875 605.601562 298.929688 606.554688 C 298.859375 606.570312 298.792969 606.597656 298.726562 606.613281 C 297.523438 603.886719 296.023438 600.414062 294.347656 596.355469 C 293.363281 593.917969 292.371094 591.261719 291.398438 588.480469" fill="#e6e7e8"/></g><g clip-path="url(#a)" id="change1_7"><path d="M 211.125 573.453125 L 212.285156 572.667969 L 213.253906 571.972656 L 214.21875 571.28125 L 215.398438 570.132812 C 216.136719 569.355469 217.035156 568.492188 217.558594 567.746094 C 219.808594 564.804688 221.285156 561.703125 222.515625 558.761719 C 224.949219 552.832031 226.15625 547.179688 226.867188 542.320312 C 227.285156 539.546875 227.511719 537.066406 227.644531 534.882812 C 228.328125 534.558594 229.082031 534.160156 230.03125 533.601562 C 243.28125 525.765625 257.523438 520.945312 272.617188 518.429688 C 273.003906 519.917969 273.40625 521.46875 273.84375 523.144531 C 275.140625 528.300781 276.683594 534.265625 278.011719 540.597656 C 278.699219 543.753906 279.203125 547.042969 279.605469 550.28125 C 280.09375 553.515625 280.089844 556.917969 279.984375 559.371094 C 279.832031 560.878906 279.351562 562.941406 279.113281 564.410156 C 278.921875 565.484375 278.671875 566.578125 278.601562 567.636719 L 278.570312 570.757812 C 278.6875 574.851562 279.644531 578.601562 280.769531 582.007812 C 281.855469 585.445312 283.34375 588.535156 284.859375 591.34375 C 286.308594 594.195312 287.957031 596.707031 289.523438 598.972656 C 291.890625 602.398438 294.171875 605.191406 296.097656 607.347656 C 293.007812 608.40625 289.996094 609.945312 286.839844 610.257812 C 270.773438 611.84375 254.664062 613.121094 238.546875 614.078125 C 228.191406 614.691406 218.027344 613.28125 209.09375 607.421875 C 208.796875 607.226562 208.5 607.03125 208.199219 606.832031 C 208.039062 605.84375 207.875 604.816406 207.699219 603.738281 C 207.066406 599.082031 206.347656 593.679688 206.308594 588.15625 C 206.242188 582.71875 207.242188 576.851562 210.015625 574.328125 C 210.367188 574.019531 210.699219 573.683594 211.125 573.453125" fill="#e6e7e8"/></g><g clip-path="url(#b)" id="change1_8"><path d="M 353.261719 544.285156 C 351.28125 541.171875 349.519531 537.828125 347.78125 534.59375 C 347.007812 532.976562 346.296875 531.363281 345.910156 529.996094 L 344.828125 526.796875 C 344.472656 525.828125 344.242188 524.929688 343.785156 523.902344 C 342.582031 521.796875 341.410156 519.429688 340 517.652344 C 338.523438 515.96875 337.265625 514.019531 335.59375 512.625 C 332.5 509.503906 328.96875 507.109375 325.523438 505.070312 C 322.101562 502.953125 318.5625 501.4375 315.203125 500.144531 C 311.863281 498.792969 308.597656 497.878906 305.589844 497.109375 C 302.589844 496.320312 299.789062 495.832031 297.316406 495.433594 C 294.839844 495.054688 292.664062 494.835938 290.871094 494.707031 C 290.683594 494.691406 290.546875 494.691406 290.363281 494.679688 C 290.382812 494.527344 290.402344 494.378906 290.417969 494.226562 C 290.847656 493.273438 291.277344 492.332031 291.710938 491.292969 C 292.863281 488.328125 294.664062 485.164062 295.433594 481.566406 C 296.234375 477.984375 297.417969 474.210938 297.90625 470.1875 C 298.039062 468.152344 298.175781 466.085938 298.308594 463.992188 C 298.394531 461.894531 298.738281 459.753906 298.347656 457.617188 C 297.785156 453.351562 297.699219 448.914062 296.34375 444.714844 C 295.742188 442.605469 295.171875 440.484375 294.507812 438.414062 C 293.757812 436.671875 293.007812 434.941406 292.261719 433.214844 C 293.359375 432.535156 294.882812 431.628906 296.867188 430.535156 C 298.976562 429.367188 301.566406 428.027344 304.570312 426.613281 C 307.574219 425.195312 311.023438 423.761719 314.820312 422.402344 C 318.609375 421.015625 322.820312 419.914062 327.238281 418.851562 C 331.707031 417.992188 336.429688 417.339844 341.304688 417.199219 C 343.75 417.148438 346.238281 417.082031 348.589844 417.386719 C 349.800781 417.503906 350.960938 417.546875 352.21875 417.703125 L 356.226562 418.375 C 358.933594 418.84375 361.660156 419.3125 364.398438 419.785156 C 367.273438 420.300781 370.1875 420.402344 373.09375 420.695312 C 378.890625 420.765625 384.671875 420.589844 390.234375 419.898438 C 395.832031 419.363281 401.167969 418.183594 406.316406 417.1875 C 416.582031 415.019531 425.847656 412.539062 433.855469 410.878906 C 435.222656 410.601562 436.496094 410.371094 437.785156 410.136719 C 440.535156 419.769531 442.714844 429.429688 442.195312 439.992188 C 441.199219 460.382812 440.863281 480.6875 433.953125 500.175781 C 433.925781 500.257812 433.898438 500.347656 433.871094 500.433594 C 429.988281 499.632812 425.105469 498.601562 419.460938 497.292969 C 412.484375 495.621094 404.40625 493.578125 396.09375 490.773438 C 391.921875 489.425781 387.78125 487.660156 383.679688 485.839844 C 381.601562 484.964844 379.722656 483.78125 377.714844 482.773438 C 375.867188 481.585938 373.996094 480.390625 372.292969 479.078125 L 367.007812 474.601562 C 365.050781 473.050781 363.675781 471.441406 361.234375 469.960938 C 356.800781 466.78125 352.191406 464.617188 347.503906 463.136719 C 345.164062 462.359375 342.855469 461.671875 340.5 461.421875 C 338.1875 460.960938 335.898438 460.84375 333.679688 460.777344 C 329.246094 460.550781 325.101562 461.121094 321.382812 461.824219 C 319.523438 462.195312 317.777344 462.679688 316.121094 463.113281 C 314.511719 463.679688 312.980469 464.214844 311.542969 464.714844 C 308.71875 465.828125 306.363281 467.007812 304.472656 468.046875 C 300.699219 470.15625 298.816406 471.734375 298.816406 471.734375 C 298.816406 471.734375 301.113281 470.859375 305.183594 469.816406 C 307.214844 469.285156 309.707031 468.789062 312.53125 468.257812 C 315.382812 467.8125 318.585938 467.464844 322.050781 467.296875 C 325.519531 467.238281 329.246094 467.328125 333.074219 467.921875 C 334.992188 468.203125 336.941406 468.527344 338.855469 469.160156 C 339.820312 469.429688 340.792969 469.699219 341.777344 469.972656 C 342.726562 470.34375 343.683594 470.714844 344.648438 471.09375 C 348.519531 472.527344 352.191406 474.917969 355.488281 477.238281 L 356.777344 478.101562 L 358.105469 479.285156 L 360.777344 481.695312 L 366.429688 486.675781 C 368.570312 488.253906 370.816406 489.621094 373.042969 490.964844 C 375.34375 492.078125 377.585938 493.378906 379.90625 494.300781 C 384.507812 496.296875 389.191406 497.675781 393.703125 498.859375 C 398.214844 500.085938 402.644531 500.828125 406.828125 501.464844 C 411.011719 502.128906 414.992188 502.460938 418.660156 502.722656 C 424.269531 503.101562 429.136719 503.125 433.035156 503.015625 C 431.488281 507.933594 430.066406 513.140625 426.800781 516.414062 C 423.152344 520.078125 420.523438 524.117188 417.761719 528.1875 C 405.398438 546.40625 391.722656 563.175781 371.039062 572.515625 C 369.273438 569.601562 366.972656 565.878906 364.183594 561.558594 C 360.988281 556.503906 357.257812 550.605469 353.261719 544.285156" fill="#e6e7e8"/></g><g id="change1_2"><path d="M 247 433.464844 C 249.710938 427.710938 257.671875 424.632812 266.878906 425.816406 C 258.117188 431.160156 251.816406 437.738281 251.0625 449.152344 C 246.144531 443.648438 244.453125 438.875 247 433.464844 Z M 242.058594 451.90625 C 245.699219 455.488281 245.710938 457.921875 241.996094 461.261719 C 240.175781 462.902344 239.226562 465.511719 237.183594 468.816406 C 243.496094 466.402344 246.457031 459.34375 253.679688 462.003906 C 255.644531 455.039062 262.113281 460.855469 266.144531 457.8125 C 267.1875 461.464844 268.035156 464.421875 268.882812 467.382812 C 269.261719 467.347656 269.644531 467.316406 270.023438 467.28125 C 270.0625 465.140625 269.632812 462.851562 270.261719 460.902344 C 270.976562 458.707031 272.410156 456.578125 274.070312 454.976562 C 274.445312 454.617188 277.335938 456.28125 278.582031 457.507812 C 284.53125 463.351562 287.144531 470.285156 288.691406 477.808594 C 288.976562 475.097656 289.324219 472.332031 289.503906 469.476562 C 289.335938 465.835938 289.554688 462.074219 289.113281 458.324219 C 288.476562 454.597656 288.371094 450.71875 287.046875 447.089844 L 285.597656 441.53125 C 284.882812 439.753906 284.167969 437.980469 283.460938 436.222656 C 282.179688 432.648438 280.171875 429.429688 278.585938 426.136719 C 276.496094 423.136719 274.902344 419.90625 272.757812 417.257812 C 270.785156 414.476562 268.769531 411.945312 266.835938 409.636719 C 266.769531 409.558594 266.707031 409.492188 266.640625 409.414062 C 263.703125 410.210938 260.765625 411.046875 257.90625 412.113281 C 251.058594 414.664062 244.15625 416.910156 239.792969 423.894531 C 234.160156 432.910156 234.414062 444.390625 242.058594 451.90625" fill="#e6e7e8"/></g><g id="change1_3"><path d="M 190.324219 546.132812 C 188.914062 544.8125 187.390625 543.386719 185.777344 541.875 C 184.046875 540.5 182.21875 539.046875 180.328125 537.546875 C 178.496094 535.980469 176.503906 534.492188 174.417969 533.035156 C 172.359375 531.554688 170.269531 530.050781 168.179688 528.542969 C 163.871094 525.699219 159.644531 522.730469 155.511719 520.171875 C 151.4375 517.527344 147.640625 515.035156 144.316406 513 C 141.027344 510.882812 138.289062 509.121094 136.371094 507.886719 C 134.472656 506.609375 133.390625 505.882812 133.390625 505.882812 C 133.390625 505.882812 134.59375 506.386719 136.703125 507.273438 C 138.769531 508.242188 141.816406 509.425781 145.296875 511.234375 C 148.789062 513 152.917969 514.988281 157.152344 517.46875 C 161.476562 519.785156 165.808594 522.757812 170.226562 525.582031 C 172.332031 527.148438 174.441406 528.71875 176.515625 530.261719 C 178.632812 531.746094 180.546875 533.4375 182.367188 535.113281 C 184.214844 536.757812 185.972656 538.367188 187.574219 539.957031 C 189.078125 541.660156 190.496094 543.265625 191.804688 544.75 C 193.128906 546.214844 194.320312 547.566406 195.113281 548.992188 C 195.972656 550.347656 196.722656 551.527344 197.34375 552.496094 C 198.527344 554.449219 199.203125 555.566406 199.203125 555.566406 C 199.203125 555.566406 198.316406 554.597656 196.773438 552.90625 C 196.023438 552.054688 195.117188 551.023438 194.074219 549.839844 C 193.105469 548.609375 191.71875 547.46875 190.324219 546.132812 Z M 131.242188 517.90625 C 132.6875 519.183594 134.257812 520.566406 135.917969 522.027344 C 137.691406 523.355469 139.5625 524.757812 141.496094 526.207031 C 143.378906 527.71875 145.417969 529.152344 147.542969 530.550781 C 149.644531 531.976562 151.78125 533.425781 153.914062 534.871094 C 158.308594 537.597656 162.621094 540.449219 166.832031 542.890625 C 170.980469 545.421875 174.855469 547.800781 178.242188 549.734375 C 181.601562 551.75 184.398438 553.425781 186.355469 554.601562 C 188.296875 555.820312 189.40625 556.515625 189.40625 556.515625 C 189.40625 556.515625 188.183594 556.046875 186.042969 555.226562 C 183.945312 554.320312 180.855469 553.238281 177.320312 551.53125 C 173.769531 549.867188 169.578125 548 165.269531 545.640625 C 160.871094 543.445312 156.453125 540.59375 151.953125 537.890625 C 149.800781 536.378906 147.648438 534.867188 145.527344 533.382812 C 143.363281 531.957031 141.402344 530.316406 139.53125 528.695312 C 137.636719 527.105469 135.828125 525.542969 134.179688 523.996094 C 132.625 522.34375 131.15625 520.777344 129.800781 519.332031 C 128.433594 517.90625 127.199219 516.589844 126.359375 515.1875 C 125.453125 513.863281 124.664062 512.707031 124.015625 511.753906 C 122.769531 509.839844 122.054688 508.746094 122.054688 508.746094 C 122.054688 508.746094 122.96875 509.683594 124.574219 511.328125 C 125.347656 512.15625 126.289062 513.160156 127.371094 514.308594 C 128.382812 515.511719 129.804688 516.609375 131.242188 517.90625 Z M 97.4375 521.972656 C 96.113281 523.925781 85.046875 561.28125 199.347656 596.0625 C 198.746094 593.753906 198.21875 591.328125 197.894531 588.714844 C 197.554688 585.507812 197.324219 582.050781 197.960938 578.363281 C 198.539062 574.734375 200.109375 570.601562 203.351562 567.421875 C 204.179688 566.65625 205.042969 565.933594 206.007812 565.375 L 206.539062 565.046875 C 206.523438 565.054688 206.484375 565.078125 206.5 565.070312 L 206.53125 565.046875 L 206.589844 565.003906 L 206.835938 564.835938 L 207.816406 564.15625 L 208.796875 563.480469 L 209.277344 562.941406 C 209.605469 562.550781 209.925781 562.386719 210.332031 561.867188 C 211.945312 559.863281 213.59375 557.597656 214.882812 555.121094 C 217.570312 550.238281 219.703125 545.195312 221.554688 540.855469 C 222.417969 538.746094 223.210938 536.820312 223.921875 535.085938 C 222.972656 534.4375 222.050781 533.132812 220.585938 531.074219 C 216.800781 525.75 211.945312 521.183594 207.539062 516.304688 C 206.835938 515.523438 205.878906 514.929688 205.300781 514.074219 C 194.492188 498.09375 179.351562 486.929688 163.359375 476.851562 C 156.703125 472.660156 149.59375 469.050781 142.351562 465.960938 C 133.519531 462.195312 127.214844 466.035156 125.359375 475.515625 C 124.742188 478.652344 124.140625 481.847656 123.519531 485.132812 C 124.617188 485.519531 125.699219 485.894531 126.816406 486.292969 C 131.171875 487.828125 135.667969 489.417969 140.210938 491.183594 C 144.777344 492.828125 149.304688 494.890625 153.859375 496.800781 C 158.300781 499.023438 162.855469 500.972656 167.027344 503.539062 C 169.128906 504.785156 171.289062 505.886719 173.277344 507.21875 C 175.246094 508.574219 177.195312 509.917969 179.109375 511.234375 C 182.988281 513.792969 186.195312 517.007812 189.515625 519.644531 C 192.539062 522.632812 195.25 525.605469 197.820312 528.261719 C 200.046875 531.214844 202.089844 533.925781 203.894531 536.324219 C 205.78125 538.664062 206.8125 541.121094 207.972656 542.925781 C 210.117188 546.648438 211.34375 548.773438 211.34375 548.773438 C 211.34375 548.773438 210.023438 546.707031 207.707031 543.089844 C 206.46875 541.339844 205.34375 538.957031 203.359375 536.714844 C 201.460938 534.421875 199.316406 531.832031 196.980469 529.011719 C 194.3125 526.496094 191.511719 523.691406 188.40625 520.894531 C 185.007812 518.445312 181.746094 515.445312 177.816406 513.113281 C 175.882812 511.90625 173.917969 510.683594 171.929688 509.441406 C 169.929688 508.230469 167.75 507.246094 165.644531 506.121094 C 161.464844 503.800781 156.882812 502.089844 152.449219 500.113281 C 147.871094 498.441406 143.367188 496.628906 138.769531 495.207031 C 134.222656 493.675781 129.6875 492.300781 125.292969 490.976562 C 121.695312 489.875 118.21875 488.84375 114.84375 487.820312 C 109.746094 487.511719 107.6875 490.214844 108.867188 496.558594 C 110.261719 504.0625 112.710938 511.371094 114.800781 519.132812 C 116.550781 521.070312 118.304688 523.019531 120.167969 525.078125 C 122.796875 527.59375 125.515625 530.1875 128.277344 532.828125 C 130.96875 535.5625 134.027344 537.960938 137.066406 540.390625 C 140.144531 542.757812 143.003906 545.457031 146.234375 547.527344 C 149.417969 549.671875 152.550781 551.785156 155.585938 553.828125 C 158.546875 556.007812 161.773438 557.488281 164.691406 559.152344 C 167.640625 560.765625 170.433594 562.292969 173.007812 563.699219 C 175.621094 565.035156 178.164062 565.945312 180.34375 566.921875 C 182.542969 567.851562 184.464844 568.664062 186.042969 569.332031 C 189.210938 570.671875 191.019531 571.4375 191.019531 571.4375 C 191.019531 571.4375 189.171875 570.777344 185.9375 569.621094 C 184.316406 569.046875 182.351562 568.34375 180.09375 567.535156 C 177.855469 566.6875 175.242188 565.914062 172.539062 564.722656 C 169.871094 563.457031 166.976562 562.085938 163.917969 560.636719 C 160.886719 559.128906 157.527344 557.808594 154.421875 555.785156 C 151.230469 553.894531 147.9375 551.9375 144.589844 549.949219 C 141.1875 548.035156 138.144531 545.480469 134.871094 543.246094 C 131.636719 540.949219 128.378906 538.675781 125.476562 536.054688 C 122.5 533.519531 119.566406 531.023438 116.730469 528.605469 C 114.078125 525.984375 111.511719 523.449219 109.078125 521.046875 C 108.109375 520.144531 107.242188 519.203125 106.382812 518.265625 C 103.054688 518.832031 98.960938 519.71875 97.4375 521.972656" fill="#e6e7e8"/></g><g id="change1_4"><path d="M 404.859375 408.878906 C 399.789062 409.609375 394.550781 410.222656 389.308594 410.679688 C 384.046875 411.230469 378.753906 411.265625 373.5 411.109375 C 370.90625 410.859375 368.265625 410.855469 365.714844 410.4375 C 363.015625 410.027344 360.328125 409.617188 357.664062 409.214844 L 353.640625 408.625 C 352.21875 408.523438 350.691406 408.515625 349.238281 408.46875 C 346.265625 408.289062 343.488281 408.535156 340.753906 408.761719 C 335.269531 409.175781 330.125 410.496094 325.382812 411.929688 C 320.667969 413.496094 316.363281 415.316406 312.597656 417.355469 C 308.785156 419.296875 305.503906 421.429688 302.710938 423.445312 C 299.878906 425.402344 297.601562 427.359375 295.757812 428.980469 C 294.105469 430.460938 292.890625 431.675781 292 432.609375 C 291.976562 432.558594 291.953125 432.503906 291.933594 432.449219 L 290.632812 429.519531 L 288.976562 426.820312 C 287.871094 425.046875 286.777344 423.296875 285.703125 421.570312 C 283.707031 419.011719 281.800781 416.546875 279.761719 414.324219 C 280.234375 413.425781 281.058594 411.917969 282.324219 409.816406 C 284.347656 406.449219 287.410156 401.773438 291.53125 396.667969 C 293.613281 394.136719 295.945312 391.476562 298.589844 388.894531 C 299.871094 387.558594 301.285156 386.304688 302.773438 385.078125 C 304.210938 383.792969 305.761719 382.605469 307.347656 381.410156 C 310.496094 378.976562 314.117188 377.015625 317.523438 375.15625 C 321.394531 373.246094 325.417969 371.839844 330.085938 369.390625 C 334.351562 366.726562 338.285156 363.597656 341.460938 360.039062 C 344.78125 356.589844 347.324219 352.730469 349.714844 349.066406 C 354.335938 341.625 357.644531 334.40625 360.566406 328.382812 C 362.0625 325.390625 363.375 322.632812 364.714844 320.316406 C 365.339844 319.109375 366.019531 318.066406 366.648438 317.101562 C 367.273438 316.125 367.824219 315.179688 368.4375 314.5 C 368.542969 314.363281 368.617188 314.269531 368.722656 314.140625 C 370.789062 316.453125 373.46875 318.226562 375.675781 320.078125 C 373.933594 320.804688 404.730469 349.152344 410.035156 354.796875 C 410.902344 355.722656 411.332031 357.089844 411.855469 358.300781 C 412.5625 359.929688 412.90625 361.765625 413.847656 363.230469 C 419.09375 371.40625 424.839844 379.289062 429.664062 387.703125 C 432.488281 392.625 434.253906 398.246094 435.902344 403.730469 C 436.0625 404.257812 436.21875 404.78125 436.375 405.3125 C 435.296875 405.347656 434.257812 405.351562 433.136719 405.4375 C 424.6875 405.90625 415.003906 407.429688 404.859375 408.878906" fill="#e6e7e8"/></g><g id="change1_5"><path d="M 182.601562 190.945312 C 185.464844 191.785156 187.078125 194.871094 186.210938 197.839844 C 185.339844 200.808594 182.3125 202.535156 179.449219 201.695312 C 176.589844 200.859375 174.972656 197.769531 175.84375 194.800781 C 176.714844 191.832031 179.738281 190.105469 182.601562 190.945312" fill="#e6e7e8"/></g><g id="change1_6"><path d="M 168.957031 196.953125 C 170.695312 191.015625 176.75 187.5625 182.476562 189.242188 C 188.199219 190.917969 191.433594 197.09375 189.691406 203.03125 C 187.953125 208.96875 181.902344 212.421875 176.175781 210.742188 C 170.449219 209.066406 167.21875 202.890625 168.957031 196.953125 Z M 210.679688 309.839844 C 211.714844 313.703125 212.441406 316.417969 213.265625 319.492188 C 208.664062 321.179688 204.609375 322.667969 200.558594 324.15625 C 200.28125 323.773438 200.003906 323.394531 199.726562 323.011719 C 203.105469 318.945312 206.488281 314.882812 210.679688 309.839844 Z M 223.824219 327.246094 C 228.023438 334.433594 237.152344 339.925781 241.433594 347.253906 C 240.960938 347.730469 262.171875 377.015625 261.703125 377.492188 C 255.675781 370.8125 219.351562 335.386719 211.34375 338.449219 C 205.304688 340.761719 193.28125 350.335938 187.425781 353.09375 C 181.203125 356.023438 175.128906 359.269531 168.988281 362.378906 C 171.21875 357.785156 174.285156 354.214844 176.871094 350.324219 C 186.023438 336.550781 206.589844 327.339844 223.824219 327.246094 Z M 1.890625 101.597656 C 4.15625 112.128906 8.589844 122.414062 14.132812 132.199219 C 19.710938 142.007812 26.917969 150.933594 34.484375 159.445312 C 42.148438 167.902344 50.628906 175.515625 59.164062 182.765625 C 67.886719 189.769531 76.648438 196.464844 85.523438 202.347656 C 94.328125 208.339844 103.089844 213.738281 111.527344 218.632812 C 119.96875 223.515625 128.074219 227.921875 135.664062 231.773438 C 147.765625 237.96875 158.4375 242.875 166.9375 246.558594 C 167.191406 247.238281 167.441406 247.929688 167.671875 248.703125 C 168.257812 250.671875 169.347656 252.546875 170.492188 254.277344 C 171.496094 255.792969 172.902344 257.039062 174.539062 258.859375 C 163.277344 256.457031 152.84375 254.050781 142.332031 252.054688 C 135.148438 250.691406 128.730469 248.089844 122.542969 244.066406 C 118.015625 241.125 112.535156 238.980469 106.835938 241.230469 C 106.59375 241.859375 106.351562 242.492188 106.109375 243.121094 C 119.503906 249.351562 140.878906 260.5625 154.691406 266.992188 C 146.714844 282.304688 114.28125 284.21875 114.6875 284.679688 C 107.808594 285.878906 100.933594 287.074219 94.054688 288.273438 C 94.054688 288.871094 94.054688 289.46875 94.054688 290.066406 C 96.609375 290.816406 99.214844 292.347656 101.714844 292.1875 C 119.980469 291.007812 137.320312 286.214844 153.65625 277.898438 C 153.96875 277.738281 154.304688 277.621094 154.613281 277.457031 C 166.640625 271.125 169.089844 271.472656 178.617188 280.8125 C 180.492188 282.652344 182.429688 284.4375 184.800781 286.6875 C 183.613281 288.492188 182.417969 290.359375 181.171875 292.191406 C 163.070312 318.90625 144.613281 345.386719 127.078125 372.464844 C 122.117188 380.121094 118.367188 389.132812 119.800781 399.027344 C 120.015625 400.519531 120.445312 401.980469 121.851562 403.605469 C 124.355469 397.847656 127.789062 392.300781 129.1875 386.285156 C 132.632812 371.457031 140.214844 358.816406 148.898438 346.816406 C 161.609375 329.253906 175.003906 312.183594 187.949219 294.789062 C 190.011719 292.023438 192.023438 292.144531 194.117188 293.964844 C 197.765625 297.136719 201.152344 300.613281 205.027344 304.324219 C 201.671875 308.65625 197.984375 312.707031 195.117188 317.265625 C 188.351562 328.011719 178.734375 335.199219 167.871094 341.332031 C 162.453125 344.390625 157.859375 348.914062 152.894531 352.773438 C 153.171875 353.210938 153.445312 353.648438 153.71875 354.085938 C 160.515625 349.957031 167.3125 345.828125 174.109375 341.699219 C 174.433594 342.035156 174.757812 342.375 175.082031 342.714844 C 172.476562 346.332031 170.066406 350.105469 167.238281 353.539062 C 155.484375 367.8125 143.574219 381.953125 131.785156 396.199219 C 126.0625 403.113281 124.375 411.359375 123.675781 419.875 C 124.210938 420.097656 124.746094 420.316406 125.28125 420.535156 C 127.722656 413.988281 130.160156 407.441406 132.601562 400.890625 C 133.199219 401.046875 133.796875 401.203125 134.394531 401.355469 C 134.050781 406.148438 133.707031 410.941406 133.359375 415.730469 C 133.6875 415.761719 134.011719 415.789062 134.335938 415.820312 C 135.375 412.28125 136.855469 408.804688 137.367188 405.191406 C 139.046875 393.359375 146.488281 385.382812 155.773438 379.527344 C 169.878906 370.632812 184.640625 362.777344 199.214844 354.636719 C 208.859375 349.246094 208.867188 349.433594 216.996094 356.902344 C 230.527344 369.335938 244.132812 381.6875 257.730469 394.046875 C 262.253906 398.15625 266.871094 402.230469 271.78125 406.605469 C 272.671875 407.351562 273.554688 408.089844 274.492188 408.871094 C 275.773438 410.023438 276.957031 411.355469 278.257812 412.65625 C 278.683594 413.0625 279.058594 413.566406 279.46875 414 C 279.640625 412.957031 279.953125 411.324219 280.566406 409.070312 C 281.636719 405.203125 283.523438 399.699219 286.953125 393.59375 C 288.652344 390.539062 290.652344 387.269531 293.226562 384.136719 C 295.691406 380.914062 298.628906 377.726562 302.042969 374.824219 C 305.421875 371.902344 309.160156 369.121094 313.558594 366.773438 C 315.683594 365.578125 317.632812 364.84375 319.695312 363.84375 L 320.675781 363.402344 L 321.335938 363.074219 L 322.660156 362.425781 C 323.527344 361.960938 324.460938 361.636719 325.285156 361.078125 C 328.683594 359.039062 331.964844 356.644531 334.769531 353.632812 C 337.632812 350.726562 340.328125 347.570312 342.753906 344.304688 C 347.605469 337.757812 351.800781 331.085938 355.863281 325.550781 C 357.851562 322.761719 359.824219 320.257812 361.753906 318.167969 C 363.59375 316.019531 365.480469 314.375 367.140625 313.109375 C 367.324219 312.976562 367.453125 312.894531 367.625 312.769531 C 364.964844 309.375 362.988281 305.488281 360.804688 301.773438 C 356.105469 293.78125 349.695312 286.558594 343.019531 280.015625 C 331.011719 268.25 317.960938 257.542969 305.984375 245.742188 C 300.066406 239.910156 295.558594 232.640625 290.445312 225.996094 C 289.597656 224.898438 288.917969 223.671875 287.472656 223.769531 C 285.027344 222.898438 282.058594 222.636719 280.230469 221.058594 C 273.003906 214.808594 214.753906 175.195312 213.519531 174.453125 C 205.464844 169.632812 197.574219 164.53125 189.769531 159.304688 C 180.714844 153.242188 171.804688 146.964844 162.828125 140.777344 C 162.453125 141.152344 162.074219 141.527344 161.695312 141.902344 C 164.402344 145.140625 167.28125 148.257812 169.777344 151.652344 C 173.640625 156.898438 205.683594 187.128906 216.878906 196.210938 C 218.105469 197.203125 218.882812 198.757812 219.488281 200.53125 C 211.121094 198.683594 202.1875 199.453125 195.832031 191.9375 C 193.757812 189.484375 189.902344 188.316406 186.652344 187.128906 C 181.742188 185.335938 176.640625 184.078125 171.648438 182.511719 C 168.789062 181.617188 165.796875 180.914062 163.1875 179.519531 C 153.570312 174.371094 143.785156 169.441406 134.640625 163.535156 C 125.585938 157.683594 117.226562 150.75 108.210938 144.027344 C 105.953125 145.730469 105.566406 149.429688 108.917969 155.367188 C 116.21875 168.300781 123.851562 181.050781 131.179688 193.972656 C 133.066406 197.296875 133.878906 201.269531 135.945312 204.453125 C 139.375 209.742188 142.953125 214.957031 146.566406 220.175781 C 144.722656 218.933594 142.84375 217.65625 140.914062 216.3125 C 134.660156 211.898438 127.921875 207.046875 121.019531 201.621094 C 114.066406 196.261719 106.972656 190.304688 99.792969 183.96875 C 92.664062 177.578125 85.453125 170.785156 78.578125 163.464844 C 71.578125 156.246094 65.054688 148.390625 58.878906 140.296875 C 52.757812 132.144531 47.382812 123.484375 42.78125 114.609375 C 38.371094 105.636719 35.097656 96.320312 33.285156 87.011719 C 31.507812 77.667969 31.910156 68.382812 33.609375 59.878906 C 34.175781 57.777344 34.738281 55.703125 35.289062 53.664062 C 35.835938 51.617188 36.875 49.78125 37.625 47.871094 C 39.035156 43.984375 41.355469 40.722656 43.300781 37.433594 C 47.566406 31.085938 52.3125 25.835938 56.925781 21.617188 C 59.082031 19.339844 61.429688 17.585938 63.570312 15.921875 C 65.703125 14.25 67.660156 12.714844 69.429688 11.324219 C 77.003906 6.449219 81.328125 3.660156 81.328125 3.660156 C 81.328125 3.660156 76.917969 6.324219 69.195312 10.984375 C 67.378906 12.324219 65.371094 13.808594 63.179688 15.425781 C 60.984375 17.035156 58.566406 18.730469 56.328125 20.960938 C 51.558594 25.078125 46.597656 30.246094 42.0625 36.585938 C 39.976562 39.878906 37.511719 43.15625 35.941406 47.101562 C 35.113281 49.035156 33.996094 50.90625 33.363281 52.996094 C 32.730469 55.089844 32.089844 57.214844 31.441406 59.367188 C 29.417969 68.105469 28.726562 77.769531 30.289062 87.503906 C 31.875 97.203125 34.988281 106.9375 39.257812 116.296875 C 43.714844 125.558594 48.976562 134.601562 54.988281 143.109375 C 61.050781 151.5625 67.484375 159.773438 74.386719 167.320312 C 81.171875 174.984375 88.296875 182.101562 95.355469 188.808594 C 102.464844 195.457031 109.496094 201.71875 116.398438 207.371094 C 123.253906 213.089844 129.953125 218.21875 136.1875 222.898438 C 136.335938 223.003906 136.472656 223.101562 136.617188 223.210938 C 129.792969 219.914062 122.636719 216.273438 115.144531 212.203125 C 106.710938 207.609375 97.941406 202.523438 89.132812 196.863281 C 80.246094 191.308594 71.480469 184.96875 62.734375 178.324219 C 54.191406 171.449219 45.679688 164.210938 37.984375 156.160156 C 30.390625 148.0625 23.132812 139.550781 17.480469 130.191406 C 11.867188 120.855469 7.3125 111.023438 4.851562 100.917969 C 2.644531 90.804688 1.8125 80.65625 3.179688 71.175781 C 3.25 68.773438 3.964844 66.507812 4.417969 64.230469 C 4.953125 61.96875 5.351562 59.703125 5.96875 57.539062 C 7.574219 53.332031 8.757812 49.101562 10.554688 45.316406 C 12.460938 41.585938 14.089844 37.886719 16.003906 34.574219 C 18.0625 31.339844 20.015625 28.269531 21.847656 25.382812 C 25.816406 19.820312 29.59375 15.167969 32.6875 11.351562 C 39.382812 4.128906 43.210938 -0.00390625 43.210938 -0.00390625 C 43.210938 -0.00390625 39.269531 4.027344 32.378906 11.078125 C 29.175781 14.816406 25.265625 19.382812 21.125 24.871094 C 19.203125 27.726562 17.152344 30.769531 14.992188 33.972656 C 12.972656 37.265625 11.222656 40.957031 9.191406 44.6875 C 7.265625 48.480469 5.945312 52.742188 4.199219 56.992188 C 3.507812 59.183594 3.039062 61.484375 2.433594 63.78125 C 1.90625 66.097656 1.117188 68.40625 0.972656 70.867188 C -0.683594 80.566406 -0.125 91.0625 1.890625 101.597656" fill="#e6e7e8"/></g></g></svg>